<svg width="167" height="33" viewBox="0 0 167 33" fill="none" xmlns="http://www.w3.org/2000/svg">
<path d="M11.072 26.544C6.95467 26.544 4.128 25.264 2.592 22.704C1.07733 20.1227 0.32 17.0187 0.32 13.392C0.32 10.5973 0.736 8.25067 1.568 6.352C2.4 4.45333 3.488 3.04533 4.832 2.128C6.19733 1.18933 7.648 0.719999 9.184 0.719999C10.3787 0.719999 11.9467 0.901332 13.888 1.264C15.0613 1.49867 15.8933 1.616 16.384 1.616C17.1307 1.616 17.6 1.392 17.792 0.943998C18.24 1.88267 18.464 2.68267 18.464 3.344C18.464 4.38933 18.24 5.25333 17.792 5.936C17.3653 6.61867 16.5333 6.96 15.296 6.96C14.8267 6.96 13.9413 6.84267 12.64 6.608C10.656 6.24533 9.03467 6.064 7.776 6.064C5.89867 6.064 4.45867 6.66133 3.456 7.856C2.45333 9.05067 1.952 10.8213 1.952 13.168C1.952 15.6427 2.73067 17.616 4.288 19.088C5.86667 20.5387 8.08533 21.264 10.944 21.264C13.0987 21.264 14.9013 20.9547 16.352 20.336C17.824 19.696 18.7733 18.7893 19.2 17.616C19.4133 18.2773 19.52 19.0027 19.52 19.792C19.52 21.008 19.2107 22.128 18.592 23.152C17.9733 24.176 17.024 24.9973 15.744 25.616C14.4853 26.2347 12.928 26.544 11.072 26.544ZM24.37 26.576C23.218 26.576 22.3007 26.064 21.618 25.04C20.9567 24.016 20.626 22.4693 20.626 20.4C20.626 19.696 20.6687 18.896 20.754 18C20.8393 17.0827 20.8927 16.5067 20.914 16.272C21.106 14.5867 21.202 13.232 21.202 12.208C21.202 11.0987 21.074 10.1813 20.818 9.456C20.5833 8.70933 20.1673 8.15467 19.57 7.792C20.85 7.30133 22.034 7.056 23.122 7.056C24.018 7.056 24.69 7.33333 25.138 7.888C25.586 8.42133 25.81 9.18933 25.81 10.192C25.81 10.8533 25.746 11.7813 25.618 12.976C25.4687 14.2987 25.4153 15.3867 25.458 16.24H25.586C25.842 14.6613 26.29 13.168 26.93 11.76C27.57 10.352 28.3273 9.22133 29.202 8.368C30.0767 7.49333 30.994 7.056 31.954 7.056C33.682 7.056 34.546 8.08 34.546 10.128C34.546 11.2587 34.514 12.2613 34.45 13.136C33.746 12.432 32.8287 12.08 31.698 12.08C30.802 12.08 29.8847 12.4213 28.946 13.104C28.0073 13.7653 27.2287 14.6507 26.61 15.76C26.0127 16.8693 25.714 18.0533 25.714 19.312C25.714 20.976 25.9807 22.2027 26.514 22.992C27.0687 23.76 27.7407 24.112 28.53 24.048C28.0393 24.8373 27.3993 25.456 26.61 25.904C25.842 26.352 25.0953 26.576 24.37 26.576ZM43.92 26.576C42.1067 26.576 40.464 26.1173 38.992 25.2C37.5413 24.2827 36.4 23.056 35.568 21.52C34.736 19.984 34.32 18.352 34.32 16.624C34.32 14.768 34.6933 13.1147 35.44 11.664C36.208 10.2133 37.296 9.08267 38.704 8.272C40.1333 7.46133 41.7973 7.056 43.696 7.056C45.5733 7.056 47.2267 7.472 48.656 8.304C50.1067 9.11467 51.2267 10.256 52.016 11.728C52.8053 13.2 53.2 14.864 53.2 16.72C53.2 18.448 52.816 20.0693 52.048 21.584C51.28 23.0987 50.192 24.3147 48.784 25.232C47.376 26.128 45.7547 26.576 43.92 26.576ZM46.096 24.88C46.9067 24.88 47.504 24.4213 47.888 23.504C48.2933 22.5867 48.496 21.424 48.496 20.016C48.496 18.4373 48.2187 16.7413 47.664 14.928C47.1307 13.1147 46.3627 11.5893 45.36 10.352C44.3787 9.09333 43.2587 8.464 42 8.464C41.104 8.464 40.4213 8.95467 39.952 9.936C39.504 10.9173 39.28 12.112 39.28 13.52C39.28 15.0987 39.5573 16.784 40.112 18.576C40.688 20.3467 41.488 21.84 42.512 23.056C43.5573 24.272 44.752 24.88 46.096 24.88ZM59.074 32.72C57.7087 32.72 56.674 32.1867 55.97 31.12C55.266 30.0747 54.914 28.624 54.914 26.768C54.914 23.8027 54.978 20.592 55.106 17.136C55.17 15.472 55.202 14.1387 55.202 13.136C55.202 11.6427 55.0633 10.448 54.786 9.552C54.53 8.656 54.1033 8.016 53.506 7.632C54.6367 7.248 55.7887 7.056 56.962 7.056C58.0713 7.056 58.8713 7.33333 59.362 7.888C59.8527 8.42133 60.1193 9.232 60.162 10.32C60.2047 10.96 60.1727 12.2933 60.066 14.32C59.9807 15.6213 59.9487 16.4107 59.97 16.688H60.098C60.546 13.8933 61.3673 11.5893 62.562 9.776C63.778 7.96267 65.5273 7.056 67.81 7.056C70.1993 7.056 71.8527 7.93067 72.77 9.68C73.7087 11.408 74.178 13.3707 74.178 15.568C74.178 17.7653 73.8473 19.696 73.186 21.36C72.5247 23.0027 71.618 24.2827 70.466 25.2C69.314 26.096 68.002 26.544 66.53 26.544C65.2927 26.544 64.322 26.1067 63.618 25.232C62.9353 24.3573 62.594 23.3013 62.594 22.064C62.594 21.4453 62.6793 20.8267 62.85 20.208C63.234 20.5707 63.7353 20.848 64.354 21.04C64.994 21.2107 65.698 21.296 66.466 21.296C67.5113 21.296 68.5247 21.0827 69.506 20.656C70.5087 20.2293 71.3193 19.5893 71.938 18.736C72.578 17.8613 72.898 16.8053 72.898 15.568C72.898 14.9707 72.738 14.3733 72.418 13.776C72.098 13.1573 71.586 12.6453 70.882 12.24C70.178 11.8133 69.282 11.6 68.194 11.6C66.1033 11.6 64.4393 12.2507 63.202 13.552C61.9647 14.8533 61.1007 16.464 60.61 18.384C60.1193 20.2827 59.874 22.2347 59.874 24.24C59.874 26.0747 60.1407 27.5467 60.674 28.656C61.2287 29.7867 62.05 30.3947 63.138 30.48C62.626 31.1413 62.0287 31.6747 61.346 32.08C60.6633 32.5067 59.906 32.72 59.074 32.72ZM85.572 26.544C81.4547 26.544 78.628 25.264 77.092 22.704C75.5773 20.1227 74.82 17.0187 74.82 13.392C74.82 10.5973 75.236 8.25067 76.068 6.352C76.9 4.45333 77.988 3.04533 79.332 2.128C80.6973 1.18933 82.148 0.719999 83.684 0.719999C84.8787 0.719999 86.4467 0.901332 88.388 1.264C89.5613 1.49867 90.3933 1.616 90.884 1.616C91.6307 1.616 92.1 1.392 92.292 0.943998C92.74 1.88267 92.964 2.68267 92.964 3.344C92.964 4.38933 92.74 5.25333 92.292 5.936C91.8653 6.61867 91.0333 6.96 89.796 6.96C89.3267 6.96 88.4413 6.84267 87.14 6.608C85.156 6.24533 83.5347 6.064 82.276 6.064C80.3987 6.064 78.9587 6.66133 77.956 7.856C76.9533 9.05067 76.452 10.8213 76.452 13.168C76.452 15.6427 77.2307 17.616 78.788 19.088C80.3667 20.5387 82.5853 21.264 85.444 21.264C87.5987 21.264 89.4013 20.9547 90.852 20.336C92.324 19.696 93.2733 18.7893 93.7 17.616C93.9133 18.2773 94.02 19.0027 94.02 19.792C94.02 21.008 93.7107 22.128 93.092 23.152C92.4733 24.176 91.524 24.9973 90.244 25.616C88.9853 26.2347 87.428 26.544 85.572 26.544ZM98.87 26.576C97.718 26.576 96.8007 26.064 96.118 25.04C95.4567 24.016 95.126 22.4693 95.126 20.4C95.126 19.696 95.1687 18.896 95.254 18C95.3393 17.0827 95.3927 16.5067 95.414 16.272C95.606 14.5867 95.702 13.232 95.702 12.208C95.702 11.0987 95.574 10.1813 95.318 9.456C95.0833 8.70933 94.6673 8.15467 94.07 7.792C95.35 7.30133 96.534 7.056 97.622 7.056C98.518 7.056 99.19 7.33333 99.638 7.888C100.086 8.42133 100.31 9.18933 100.31 10.192C100.31 10.8533 100.246 11.7813 100.118 12.976C99.9687 14.2987 99.9153 15.3867 99.958 16.24H100.086C100.342 14.6613 100.79 13.168 101.43 11.76C102.07 10.352 102.827 9.22133 103.702 8.368C104.577 7.49333 105.494 7.056 106.454 7.056C108.182 7.056 109.046 8.08 109.046 10.128C109.046 11.2587 109.014 12.2613 108.95 13.136C108.246 12.432 107.329 12.08 106.198 12.08C105.302 12.08 104.385 12.4213 103.446 13.104C102.507 13.7653 101.729 14.6507 101.11 15.76C100.513 16.8693 100.214 18.0533 100.214 19.312C100.214 20.976 100.481 22.2027 101.014 22.992C101.569 23.76 102.241 24.112 103.03 24.048C102.539 24.8373 101.899 25.456 101.11 25.904C100.342 26.352 99.5953 26.576 98.87 26.576ZM113.846 26.576C112.459 26.5333 111.296 26.1493 110.358 25.424C109.419 24.6987 108.95 23.696 108.95 22.416C108.95 21.008 109.536 19.8027 110.71 18.8C111.904 17.776 113.547 16.8053 115.638 15.888L117.558 15.024C119.264 14.256 120.576 13.6373 121.494 13.168C122.411 12.6773 123.094 12.1973 123.542 11.728C123.584 10.8747 123.35 10.1173 122.838 9.456C122.326 8.79467 121.558 8.464 120.534 8.464C120.384 8.464 120.139 8.48533 119.798 8.528C118.944 9.808 117.867 10.8427 116.566 11.632C115.264 12.4213 114.048 12.816 112.918 12.816C112.043 12.816 111.339 12.5493 110.806 12.016C110.272 11.4613 110.006 10.64 110.006 9.552C110.006 8.86933 110.144 8.18667 110.422 7.504C111.04 7.93067 111.979 8.144 113.238 8.144C114.283 8.144 115.979 7.952 118.326 7.568C120.544 7.22667 122.08 7.056 122.934 7.056C124.448 7.056 125.686 7.48267 126.646 8.336C127.606 9.168 128.086 10.416 128.086 12.08L128.022 14.8C127.936 16.7627 127.894 18.2987 127.894 19.408C127.894 22.3733 128.534 23.856 129.814 23.856C129.92 23.856 130.08 23.8347 130.294 23.792C129.803 24.816 129.184 25.552 128.438 26C127.712 26.4267 126.987 26.6187 126.262 26.576C125.643 26.5973 125.046 26.448 124.47 26.128C123.915 25.808 123.456 25.3387 123.094 24.72C122.752 24.08 122.582 23.344 122.582 22.512C122.582 21.616 122.646 20.4533 122.774 19.024C122.923 17.5733 123.083 16.1547 123.254 14.768L123.414 13.296L123.35 13.264C122.944 13.712 122.454 14.1387 121.878 14.544C121.323 14.9493 120.576 15.4507 119.638 16.048C118.08 17.0293 116.907 17.872 116.118 18.576C115.35 19.28 114.966 20.0587 114.966 20.912C114.966 21.488 115.158 21.9467 115.542 22.288C115.947 22.6293 116.448 22.8 117.046 22.8C117.643 22.8 118.262 22.6187 118.902 22.256C119.563 21.872 120.139 21.3067 120.63 20.56C120.224 22.352 119.382 23.792 118.102 24.88C116.843 25.968 115.424 26.5333 113.846 26.576ZM143.851 26.576C143.04 26.576 142.229 26.512 141.419 26.384C140.608 26.2773 139.616 26.1173 138.443 25.904C136.501 25.5413 135.083 25.36 134.187 25.36C133.12 25.36 132.171 25.5733 131.339 26C131.019 24.8267 130.859 23.8987 130.859 23.216C130.859 22 131.264 20.9653 132.075 20.112C132.885 19.2587 133.845 18.576 134.955 18.064C136.064 17.552 137.515 16.9867 139.307 16.368C143.04 14.9387 145.003 13.488 145.195 12.016C144.448 11.824 143.381 11.6533 141.995 11.504C140.629 11.3547 139.424 11.28 138.379 11.28C136.501 11.28 135.104 11.4613 134.187 11.824C133.269 12.1653 132.747 12.7093 132.619 13.456C132.021 13.0933 131.563 12.6027 131.243 11.984C130.923 11.3653 130.763 10.7253 130.763 10.064C130.763 9.18933 131.029 8.464 131.563 7.888C132.117 7.312 132.939 7.024 134.027 7.024C134.624 7.024 135.339 7.088 136.171 7.216C137.024 7.32267 137.717 7.41867 138.251 7.504C138.784 7.58933 139.168 7.65333 139.403 7.696C140.725 7.93067 141.803 8.112 142.635 8.24C143.467 8.34667 144.235 8.4 144.939 8.4C145.643 8.4 146.251 8.32533 146.763 8.176C147.275 8.02667 147.627 7.80267 147.819 7.504C148.203 8.44267 148.395 9.33867 148.395 10.192C148.395 11.536 147.968 12.6773 147.115 13.616C146.283 14.5333 145.269 15.2693 144.075 15.824C142.901 16.3573 141.376 16.944 139.499 17.584C137.685 18.224 136.331 18.768 135.435 19.216C134.539 19.6427 133.931 20.1867 133.611 20.848C134.571 21.0187 135.904 21.1893 137.611 21.36C139.317 21.5307 140.779 21.616 141.995 21.616C143.509 21.616 144.736 21.36 145.675 20.848C146.613 20.336 147.04 19.6 146.955 18.64C147.531 19.0667 147.957 19.6 148.235 20.24C148.533 20.8587 148.683 21.5307 148.683 22.256C148.683 23.4933 148.299 24.528 147.531 25.36C146.763 26.1707 145.536 26.576 143.851 26.576ZM157.575 26.576C155.825 26.576 154.332 26.16 153.095 25.328C151.879 24.496 150.951 23.3653 150.311 21.936C149.692 20.4853 149.383 18.8533 149.383 17.04C149.383 15.2267 149.756 13.5627 150.503 12.048C151.249 10.5333 152.348 9.328 153.799 8.432C155.271 7.51467 157.02 7.056 159.047 7.056C160.732 7.056 162.119 7.312 163.207 7.824C164.295 8.336 165.084 8.99733 165.575 9.808C166.087 10.5973 166.343 11.44 166.343 12.336C166.343 14.384 165.468 15.824 163.719 16.656C161.969 17.488 159.985 17.904 157.767 17.904C156.615 17.904 155.729 17.6907 155.111 17.264C154.492 16.816 154.183 16.3147 154.183 15.76C154.183 15.376 154.353 15.056 154.695 14.8C155.057 14.5227 155.548 14.384 156.167 14.384C156.295 14.896 156.807 15.3013 157.703 15.6C158.599 15.8987 159.591 16.048 160.679 16.048C161.788 16.048 162.663 15.8667 163.303 15.504C163.943 15.1413 164.263 14.6933 164.263 14.16C164.263 13.7333 164.049 13.3173 163.623 12.912C163.196 12.5067 162.556 12.176 161.703 11.92C160.849 11.664 159.825 11.536 158.631 11.536C157.095 11.536 155.729 11.7813 154.535 12.272C153.34 12.7627 152.401 13.424 151.719 14.256C151.057 15.088 150.727 16.0053 150.727 17.008C150.727 18.5653 151.239 19.728 152.263 20.496C153.287 21.2427 154.567 21.616 156.103 21.616C157.041 21.616 158.428 21.424 160.263 21.04C160.476 20.9973 160.967 20.912 161.735 20.784C162.524 20.6347 163.217 20.56 163.815 20.56C164.668 20.56 165.308 20.8267 165.735 21.36C166.183 21.872 166.407 22.5653 166.407 23.44C166.407 24.272 166.247 25.1253 165.927 26C165.457 25.7653 164.913 25.648 164.295 25.648C163.932 25.648 163.505 25.6907 163.015 25.776C162.545 25.84 162.065 25.9253 161.575 26.032C160.721 26.2027 159.996 26.3307 159.399 26.416C158.823 26.5227 158.215 26.576 157.575 26.576Z" fill="#BF8A00"/>
</svg>
